<svg width="100" height="110" viewBox="0 0 100 110" xmlns="http://www.w3.org/2000/svg" fill="#363636">
  <path d="M0 50C0 22.3858 22.3858 0 50 0V0C77.6142 0 100 22.3858 100 50V88H0V50Z" />
  <path d="M20 100C20 105.523 15.5228 110 10 110V110C4.47715 110 -1.51594e-06 105.523 -1.03312e-06 100L1.59523e-08 88L20 88L20 100Z"/>
  <path d="M60 100C60 105.523 55.5228 110 50 110V110C44.4772 110 40 105.523 40 100L40 88L60 88L60 100Z"/>
  <path d="M100 100C100 105.523 95.5228 110 90 110V110C84.4772 110 80 105.523 80 100L80 88L100 88L100 100Z"/>
  <path fill-rule="evenodd" clip-rule="evenodd" d="M20 97C20 92.0294 24.0294 88 29 88H20V97ZM40 97H60C60 92.0294 64.0294 88 69 88H31C35.9706 88 40 92.0294 40 97ZM71 88C75.9706 88 80 92.0294 80 97H81V88H71Z"/>
</svg>
